MoBL_ARMS_module2_4_elbow_flexion_states	
version=1	
nRows=421	
nColumns=2	
inDegrees=yes	
	
# SIMM Motion File Header:	
name MoBL_ARMS_module2_4_elbow_flexion_states	
datacolumns 2	
datarows 421	
otherdata 1	
range 0 1.038353575	
endheader	
time	elbow_flexion
0	40
0.003473692	39.99522887
0.008040403	39.9745458
0.01060108	39.95585061
0.013161757	39.93211993
0.017979516	39.87397203
0.02143368	39.8215949
0.024887844	39.76044219
0.028342007	39.69067062
0.031268949	39.62490048
0.033612899	39.56790757
0.035956849	39.50711719
0.038300798	39.44258006
0.041128717	39.3598021
0.043527036	39.28545002
0.045925355	39.20734971
0.048323674	39.12555898
0.050721993	39.04013682
0.053120313	38.95114338
0.055518632	38.85863993
0.057916951	38.76268875
0.06031527	38.66335305
0.062713589	38.56069685
0.065111908	38.45478495
0.068062691	38.32010546
0.070249955	38.2172304
0.07243722	38.11181998
0.075202143	37.9750216
0.077967065	37.83435633
0.080074063	37.72463088
0.082181061	37.61276612
0.085052654	37.45694622
0.087626938	37.31405032
0.090201223	37.16820875
0.092477172	37.03688334
0.094753121	36.90338039
0.097029071	36.76775859
0.099888513	36.59445391
0.102279671	36.44711878
0.104670828	36.29765924
0.107061986	36.14614326
0.109453144	35.99263866
0.111844302	35.83721325
0.11423546	35.67993475
0.116626618	35.52087076
0.119017775	35.36008866
0.12192831	35.16216233
0.124150632	35.00946502
0.126372953	34.85546566
0.129113469	34.66384348
0.131853985	34.47042212
0.133934119	34.32246923
0.136014253	34.17357996
0.138902334	33.96538823
0.141495944	33.77705003
0.144089554	33.58749701
0.14637195	33.4197489
0.148654345	33.25117843
0.150936741	33.08184051
0.153775859	32.8702084
0.156167372	32.69116149
0.158558885	32.51146659
0.160950397	32.33118473
0.16334191	32.15037641
0.165733423	31.96910144
0.168124936	31.78741906
0.170516449	31.60538792
0.172907961	31.42306611
0.175832504	31.1997965
0.178020438	31.03259633
0.180208373	30.86530211
0.18295307	30.65536901
0.185697766	30.44543806
0.187848558	30.28098717
0.18999935	30.11662694
0.192754008	29.90631435
0.195508667	29.69629403
0.197694373	29.52991193
0.199880079	29.36380241
0.202655196	29.15335197
0.205076364	28.97021379
0.207497532	28.78756753
0.2099187	28.60546355
0.212339868	28.42395141
0.214761036	28.24308006
0.217182204	28.06289773
0.219603372	27.88345198
0.22202454	27.70478969
0.224445708	27.52695704
0.226866876	27.34999951
0.229288044	27.17396185
0.231709212	26.99888805
0.23413038	26.82482138
0.236551548	26.65180438
0.238972716	26.47987905
0.241393884	26.30908637
0.243815052	26.13946659
0.24623622	25.97105929
0.248657388	25.80390322
0.251078556	25.63803642
0.253499724	25.47349613
0.255920892	25.31031885
0.25834206	25.14854034
0.260763228	24.98819558
0.263668997	24.79769864
0.265888853	24.65362946
0.26810871	24.51085308
0.270866567	24.33531137
0.273624425	24.16184903
0.275684532	24.03365698
0.27774464	23.90666839
0.280667137	23.72861985
0.283284497	23.57128818
0.285901857	23.41600185
0.288140506	23.28483241
0.290379155	23.15520407
0.292617805	23.02713668
0.295517897	22.86358204
0.297902605	22.73110893
0.300287313	22.60047819
0.302672021	22.47171085
0.305056729	22.34482726
0.307441437	22.21984712
0.309826145	22.09678938
0.312210853	21.97567236
0.315128781	21.83013944
0.317496521	21.71422365
0.319864261	21.60027458
0.322232001	21.48830743
0.324599741	21.37833669
0.326967481	21.27037624
0.329834979	21.14233905
0.332118517	21.0425141
0.334402055	20.9445961
0.336685593	20.84859517
0.339618064	20.72813977
0.341961501	20.63417664
0.344304938	20.54226374
0.346648375	20.4524096
0.348991812	20.36462213
0.351854886	20.26018412
0.354108518	20.18016266
0.356362151	20.10207248
0.358615783	20.0259186
0.361585411	19.92853453
0.363980607	19.85244969
0.366375802	19.77856749
0.368770997	19.70689167
0.371166193	19.63742537
0.373561388	19.57017119
0.375956583	19.50513117
0.378351779	19.44230683
0.380746974	19.38169918
0.383142169	19.32330869
0.386082097	19.25466947
0.388297274	19.20515724
0.39051245	19.15753995
0.393226394	19.10178231
0.395940337	19.04886408
0.398112719	19.00854906
0.400285102	18.97004857
0.40300084	18.92446642
0.405716577	18.88171009
0.407938412	18.84882683
0.410160248	18.81782668
0.412892941	18.78227475
0.415625634	18.74955626
0.417709784	18.72650152
0.419793935	18.70508501
0.422682703	18.67810053
0.425571471	18.65424107
0.427611078	18.63926964
0.429650684	18.62584389
0.432638565	18.60895536
0.435326375	18.59657213
0.4376679	18.58794172
0.440009425	18.5813103
0.44235095	18.57666806
0.444692475	18.57400484
0.447562057	18.57342442
0.449898082	18.57512111
0.452234106	18.57875265
0.45457013	18.58430753
0.456906154	18.59177394
0.459242178	18.6011397
0.462251547	18.61598438
0.464636754	18.62995658
0.467021961	18.64586456
0.469407168	18.66369379
0.471792375	18.68342971
0.474177582	18.70505728
0.476562789	18.72856111
0.478947996	18.75392548
0.481333202	18.78113436
0.483718409	18.81017139
0.486655914	18.84841941
0.488996144	18.8808357
0.491336375	18.91495922
0.493676605	18.95077328
0.496016835	18.98826093
0.498357065	19.02740492
0.501277161	19.07854424
0.503653576	19.12202138
0.506029991	19.16714651
0.508406406	19.21390035
0.510782822	19.26226337
0.513159237	19.31221573
0.515535652	19.36373732
0.517912067	19.41680773
0.52084201	19.48434096
0.523187796	19.54005785
0.525533582	19.59721824
0.527879368	19.65580149
0.530225154	19.71578666
0.533081118	19.79067963
0.53533461	19.85119296
0.537588103	19.91293722
0.540314123	19.98924587
0.543040143	20.06729263
0.545096385	20.1272921
0.547152626	20.18824525
0.550001277	20.27423484
0.55274455	20.35870707
0.555100628	20.43253074
0.557456705	20.50750669
0.559812783	20.58361085
0.56216886	20.66081896
0.564524938	20.73910655
0.567464152	20.83824647
0.569675203	20.91387818
0.571886255	20.99039083
0.574622411	21.08626298
0.577358567	21.18341247
0.579498689	21.26026363
0.581638812	21.3378524
0.584386313	21.43851147
0.587133815	21.54031289
0.589357471	21.62351249
0.591581126	21.70741094
0.594315982	21.81152238
0.597050837	21.91661561
0.599130958	21.9971807
0.601211078	22.07827107
0.604107478	22.1920228
0.607003877	22.30670675
0.60902473	22.38724835
0.611045583	22.468202
0.613975009	22.58624871
0.616904435	22.70507245
0.619026813	22.79161605
0.62114919	22.87851976
0.623998867	22.9957346
0.626848544	23.1135135
0.628951293	23.20075448
0.631054042	23.28825644
0.633953826	23.40931742
0.636502202	23.51604594
0.639050577	23.6230544
0.641598952	23.73030798
0.643773735	23.82200581
0.645948517	23.91383523
0.648621295	24.02684079
0.651294074	24.13997264
0.6535754	24.23660527
0.655856726	24.33327625
0.658138052	24.42996101
0.660977958	24.55030123
0.663388835	24.65241341
0.665799712	24.7544512
0.668210588	24.85638622
0.670621465	24.95819024
0.673032342	25.0598353
0.675443218	25.16129363
0.677854095	25.26253775
0.680264972	25.36354048
0.682675848	25.46427499
0.685086725	25.56471477
0.687497601	25.66483359
0.689908478	25.76460545
0.692319355	25.86400449
0.694730231	25.963005
0.697141108	26.06158148
0.700037884	26.17942887
0.702279812	26.27016252
0.704521741	26.36046134
0.706763669	26.4503054
0.709728601	26.56839147
0.712057635	26.66053979
0.714386669	26.75212627
0.716715702	26.84312931
0.719520807	26.9519295
0.721904533	27.04366912
0.724288259	27.13472652
0.726671985	27.22507966
0.729055711	27.31470671
0.731439437	27.40358613
0.734310676	27.50962013
0.736479783	27.58896261
0.738648891	27.6676319
0.741398103	27.76634906
0.744147315	27.86392935
0.746335313	27.94075731
0.748523311	28.01683098
0.751250821	28.11058415
0.753978331	28.20311409
0.75613679	28.2754539
0.758295249	28.34699694
0.761034819	28.43663308
0.763774388	28.52493809
0.765995382	28.59553297
0.768216376	28.66522255
0.77089781	28.74813462
0.773579244	28.8296853
0.775783728	28.89569518
0.777988211	28.96075802
0.78073028	29.0403479
0.783472349	29.11843267
0.785563061	29.1769446
0.787653773	29.2345601
0.790539876	29.31260556
0.793135515	29.38130422
0.795731154	29.44857331
0.797956018	29.50508385
0.800180882	29.56052353
0.802405745	29.61488335
0.805501452	29.68870753
0.807866402	29.74367133
0.810231351	29.79738268
0.812596301	29.8498325
0.81496125	29.90101211
0.8173262	29.95091327
0.820197612	30.00977121
0.822514083	30.05586308
0.824830554	30.1007057
0.827147025	30.14429297
0.829463496	30.18661897
0.832360504	30.23776942
0.834714198	30.27786196
0.837067893	30.31663603
0.839421588	30.35408738
0.841775282	30.39021216
0.844605925	30.43189532
0.846931215	30.46469401
0.849256506	30.49618868
0.851581796	30.52637728
0.853907087	30.55525816
0.856822939	30.58962405
0.859084042	30.61485522
0.861345145	30.63884737
0.864070002	30.66611411
0.866794858	30.69158215
0.868871118	30.70978144
0.870947378	30.7269381
0.873806936	30.74886266
0.876666494	30.76881541
0.87875875	30.78216772
0.880851006	30.79446896
0.883778021	30.8099188
0.886373009	30.82190536
0.888967998	30.83228985
0.891229707	30.84003878
0.893491415	30.8465798
0.895753124	30.85191763
0.898670827	30.85703461
0.901049878	30.85973917
0.90342893	30.86113242
0.905807981	30.86122142
0.908187032	30.8600136
0.910566083	30.85751672
0.912945135	30.85373893
0.915821155	30.84747392
0.918076967	30.84126882
0.920332779	30.83393722
0.92258859	30.82548725
0.925665266	30.81217481
0.92786918	30.80138174
0.930073093	30.78954893
0.932863343	30.77309015
0.935653592	30.7549967
0.93769761	30.74071559
0.939741628	30.72557475
0.942696244	30.70218479
0.945322869	30.6799157
0.947949494	30.65627552
0.950179234	30.63514449
0.952408973	30.61304906
0.954638712	30.5900004
0.957578086	30.55817907
0.960052747	30.53013928
0.962527407	30.5009746
0.965002068	30.47070161
0.967476729	30.43933716
0.969951389	30.40689841
0.97242605	30.3734028
0.974627887	30.34272579
0.976829723	30.31123874
0.979488314	30.27215867
0.982146905	30.23193908
0.984407664	30.19685868
0.986668424	30.16098532
0.988929184	30.12433347
0.991854125	30.07578269
0.994253335	30.03502638
0.996652544	29.99344904
0.999051754	29.95106851
1.001450963	29.90790276
1.003850173	29.86396984
1.006249383	29.81928793
1.008648592	29.77387528
1.011047802	29.72775021
1.013447012	29.68093113
1.015846221	29.6334365
1.0187277	29.5755281
1.020999954	29.52921593
1.023272207	29.48235025
1.02554446	29.43494691
1.028515505	29.37218084
1.030799355	29.32334908
1.033083205	29.27403228
1.035367056	29.22425498
1.038353575	29.15850924
